<mxfile host="app.diagrams.net" modified="2023-11-16T17:56:21.304Z" agent="Mozilla/5.0 (X11; Linux x86_64) AppleWebKit/537.36 (KHTML, like Gecko) Chrome/119.0.0.0 Safari/537.36" etag="kDERNgwALaPXiSJXHyRi" version="22.1.2" type="device">
  <diagram name="Page-1" id="RmBklCHae2-FvZ7o6U05">
    <mxGraphModel dx="853" dy="483" grid="1" gridSize="10" guides="1" tooltips="1" connect="1" arrows="1" fold="1" page="1" pageScale="1" pageWidth="850" pageHeight="1100" math="0" shadow="0">
      <root>
        <mxCell id="0" />
        <mxCell id="1" parent="0" />
        <mxCell id="pGwd2pVJrnU2UcQLpUV1-1" value="interface" style="rounded=1;whiteSpace=wrap;html=1;" parent="1" vertex="1">
          <mxGeometry x="180" y="40" width="160" height="40" as="geometry" />
        </mxCell>
        <mxCell id="yavnOEbieNHozrQLeM9--15" style="edgeStyle=orthogonalEdgeStyle;rounded=0;orthogonalLoop=1;jettySize=auto;html=1;entryX=0.5;entryY=1;entryDx=0;entryDy=0;" edge="1" parent="1" source="GCnhBtbvN-7Xa7LOHWym-53" target="pGwd2pVJrnU2UcQLpUV1-1">
          <mxGeometry relative="1" as="geometry" />
        </mxCell>
        <mxCell id="GCnhBtbvN-7Xa7LOHWym-53" value="" style="rounded=1;whiteSpace=wrap;html=1;fillColor=none;" parent="1" vertex="1">
          <mxGeometry x="90" y="120" width="340" height="440" as="geometry" />
        </mxCell>
        <mxCell id="yavnOEbieNHozrQLeM9--4" style="edgeStyle=orthogonalEdgeStyle;rounded=0;orthogonalLoop=1;jettySize=auto;html=1;entryX=0.5;entryY=1;entryDx=0;entryDy=0;" edge="1" parent="1" source="yavnOEbieNHozrQLeM9--5" target="yavnOEbieNHozrQLeM9--6">
          <mxGeometry relative="1" as="geometry" />
        </mxCell>
        <mxCell id="yavnOEbieNHozrQLeM9--5" value="database" style="rounded=1;whiteSpace=wrap;html=1;" vertex="1" parent="1">
          <mxGeometry x="120" y="240" width="120" height="40" as="geometry" />
        </mxCell>
        <mxCell id="yavnOEbieNHozrQLeM9--6" value="table" style="rounded=1;whiteSpace=wrap;html=1;" vertex="1" parent="1">
          <mxGeometry x="120" y="160" width="120" height="40" as="geometry" />
        </mxCell>
        <mxCell id="yavnOEbieNHozrQLeM9--7" style="edgeStyle=orthogonalEdgeStyle;rounded=0;orthogonalLoop=1;jettySize=auto;html=1;entryX=0.5;entryY=1;entryDx=0;entryDy=0;" edge="1" parent="1" source="yavnOEbieNHozrQLeM9--9" target="yavnOEbieNHozrQLeM9--14">
          <mxGeometry relative="1" as="geometry">
            <Array as="points">
              <mxPoint x="260" y="300" />
              <mxPoint x="340" y="300" />
            </Array>
          </mxGeometry>
        </mxCell>
        <mxCell id="yavnOEbieNHozrQLeM9--8" style="edgeStyle=orthogonalEdgeStyle;rounded=0;orthogonalLoop=1;jettySize=auto;html=1;entryX=0.5;entryY=1;entryDx=0;entryDy=0;" edge="1" parent="1" source="yavnOEbieNHozrQLeM9--9" target="yavnOEbieNHozrQLeM9--5">
          <mxGeometry relative="1" as="geometry" />
        </mxCell>
        <mxCell id="yavnOEbieNHozrQLeM9--9" value="db-manager" style="rounded=1;whiteSpace=wrap;html=1;" vertex="1" parent="1">
          <mxGeometry x="200" y="320" width="120" height="40" as="geometry" />
        </mxCell>
        <mxCell id="yavnOEbieNHozrQLeM9--10" style="edgeStyle=orthogonalEdgeStyle;rounded=0;orthogonalLoop=1;jettySize=auto;html=1;entryX=0.5;entryY=1;entryDx=0;entryDy=0;" edge="1" parent="1" source="yavnOEbieNHozrQLeM9--11" target="yavnOEbieNHozrQLeM9--9">
          <mxGeometry relative="1" as="geometry" />
        </mxCell>
        <mxCell id="yavnOEbieNHozrQLeM9--11" value="filestream" style="rounded=1;whiteSpace=wrap;html=1;" vertex="1" parent="1">
          <mxGeometry x="200" y="400" width="120" height="40" as="geometry" />
        </mxCell>
        <mxCell id="yavnOEbieNHozrQLeM9--12" style="edgeStyle=orthogonalEdgeStyle;rounded=0;orthogonalLoop=1;jettySize=auto;html=1;entryX=0.5;entryY=1;entryDx=0;entryDy=0;" edge="1" parent="1" source="yavnOEbieNHozrQLeM9--13" target="yavnOEbieNHozrQLeM9--11">
          <mxGeometry relative="1" as="geometry" />
        </mxCell>
        <mxCell id="yavnOEbieNHozrQLeM9--13" value="db-stream | api" style="rounded=1;whiteSpace=wrap;html=1;" vertex="1" parent="1">
          <mxGeometry x="200" y="480" width="120" height="40" as="geometry" />
        </mxCell>
        <mxCell id="yavnOEbieNHozrQLeM9--14" value="query-executor" style="rounded=1;whiteSpace=wrap;html=1;" vertex="1" parent="1">
          <mxGeometry x="280" y="160" width="120" height="40" as="geometry" />
        </mxCell>
      </root>
    </mxGraphModel>
  </diagram>
</mxfile>
